<svg width="14" height="15" viewBox="0 0 14 15" fill="none" xmlns="http://www.w3.org/2000/svg">
    <path fill-rule="evenodd" clip-rule="evenodd"
        d="M12.8333 7.52492C12.8333 10.7466 10.2217 13.3583 7.00001 13.3583C3.77834 13.3583 1.16667 10.7466 1.16667 7.52492C1.16667 4.30326 3.77834 1.69159 7.00001 1.69159C10.2217 1.69159 12.8333 4.30326 12.8333 7.52492ZM6.41667 5.19159C6.41667 4.86942 6.67784 4.60826 7.00001 4.60826H7.00584C7.328 4.60826 7.58917 4.86942 7.58917 5.19159C7.58917 5.51376 7.328 5.77492 7.00584 5.77492H7.00001C6.67784 5.77492 6.41667 5.51376 6.41667 5.19159ZM7.00001 6.94159C7.32217 6.94159 7.58334 7.20276 7.58334 7.52492V9.85826C7.58334 10.1804 7.32217 10.4416 7.00001 10.4416C6.67784 10.4416 6.41667 10.1804 6.41667 9.85826V7.52492C6.41667 7.20276 6.67784 6.94159 7.00001 6.94159Z"
        fill="#EB5835" />
</svg>
    