<svg width="17" height="17" viewBox="0 0 17 17" fill="none" xmlns="http://www.w3.org/2000/svg">
<path fill-rule="evenodd" clip-rule="evenodd" d="M8.33008 1.04169C8.69827 1.04169 8.99675 1.34016 8.99675 1.70835V2.42057C9.68528 2.51361 10.5141 2.76835 11.2467 3.35444C12.2671 4.17074 12.9969 5.54597 12.9969 7.70835C12.9969 9.41814 13.5194 10.7709 14.4677 11.6257C14.7455 11.8761 14.7823 12.236 14.6881 12.5024C14.5925 12.7727 14.3253 13.0417 13.9302 13.0417H2.73022C2.33513 13.0417 2.06796 12.7727 1.97237 12.5024C1.87818 12.236 1.91496 11.8761 2.19271 11.6257C3.14107 10.7709 3.66355 9.41814 3.66355 7.70835C3.66355 5.54597 4.39339 4.17074 5.41376 3.35444C6.14627 2.76843 6.97493 2.51368 7.66341 2.42061V1.70835C7.66341 1.34016 7.96189 1.04169 8.33008 1.04169ZM6.24668 4.3956C5.60039 4.91264 4.99689 5.87073 4.99689 7.70835C4.99689 9.22078 4.63975 10.6112 3.88166 11.7084H12.7788C12.0207 10.6112 11.6636 9.22078 11.6636 7.70835C11.6636 5.87073 11.0601 4.91264 10.4138 4.3956C9.7384 3.85531 8.9058 3.70835 8.33022 3.70835C7.75464 3.70835 6.92204 3.85531 6.24668 4.3956Z" fill="#B1B1B2"/>
<path d="M7.55152 14.0053C7.34728 13.6989 6.93337 13.6162 6.62702 13.8204C6.32066 14.0246 6.23788 14.4385 6.44212 14.7449C7.37266 16.1407 9.28763 16.1407 10.2182 14.7449C10.4224 14.4385 10.3396 14.0246 10.0333 13.8204C9.72693 13.6162 9.31302 13.6989 9.10878 14.0053C8.706 14.6095 7.9543 14.6095 7.55152 14.0053Z" fill="#B1B1B2"/>
</svg>
