<svg width="14" height="15" viewBox="0 0 14 15" fill="none" xmlns="http://www.w3.org/2000/svg">
    <path fill-rule="evenodd" clip-rule="evenodd"
        d="M12.8336 7.52492C12.8336 10.7466 10.2219 13.3583 7.00023 13.3583C3.77857 13.3583 1.1669 10.7466 1.1669 7.52492C1.1669 4.30326 3.77857 1.69159 7.00023 1.69159C10.2219 1.69159 12.8336 4.30326 12.8336 7.52492ZM6.4169 5.19159C6.4169 4.86942 6.67807 4.60826 7.00023 4.60826H7.00607C7.32823 4.60826 7.5894 4.86942 7.5894 5.19159C7.5894 5.51376 7.32823 5.77492 7.00607 5.77492H7.00023C6.67807 5.77492 6.4169 5.51376 6.4169 5.19159ZM7.00023 6.94159C7.3224 6.94159 7.58357 7.20276 7.58357 7.52492V9.85826C7.58357 10.1804 7.3224 10.4416 7.00023 10.4416C6.67807 10.4416 6.4169 10.1804 6.4169 9.85826V7.52492C6.4169 7.20276 6.67807 6.94159 7.00023 6.94159Z"
        fill="#FAB82E" />
</svg>
    