<svg width="17" height="17" viewBox="0 0 17 17" fill="none" xmlns="http://www.w3.org/2000/svg">
    <path
        d="M13.4986 10.5252C13.4986 13.2874 11.7598 15.0262 8.99762 15.0262C6.23546 15.0262 4.49664 13.2874 4.49664 10.5252C4.49664 7.56112 7.72328 3.55962 8.71287 2.40218C8.74809 2.36106 8.79178 2.32805 8.84096 2.30541C8.89014 2.28278 8.94364 2.27106 8.99778 2.27106C9.05192 2.27106 9.10542 2.28278 9.1546 2.30541C9.20378 2.32805 9.24747 2.36106 9.28268 2.40218C10.272 3.55962 13.4986 7.56112 13.4986 10.5252Z"
        stroke-width="1.00189" stroke-miterlimit="10" />
    <path
        d="M11.7499 10.7747C11.7499 11.3721 11.5126 11.9449 11.0902 12.3673C10.6679 12.7896 10.095 13.0269 9.49774 13.0269"
        stroke-width="1.00189" stroke-linecap="round" stroke-linejoin="round" />
</svg>
    